# xmcd CD database file
#
# Track frame offsets:
#	150
#	15150
#	32362
#	53112
#	74715
#	104507
#	139472
#	162135
#	205335
#	220712
#	242257
#
# Disc length: 3592 seconds
#
# Revision: 0
# Processed by: cddbd v1.5.1PL0 Copyright (c) Steve Scherf et al.
# Submitted via: CDex 1.51
#
DISCID=920e060b
DTITLE=Pydrogeni Que - PLASTIC PYDRO PHILOSOPHY
DYEAR=2005
DGENRE=Unknown
TTITLE0=Pydro Essence
TTITLE1=夜の覚醒
TTITLE2=Turning Around
TTITLE3=風
TTITLE4=Angel
TTITLE5=En el nombre de la Eternidad（永遠という名のもとに）
TTITLE6=軌跡
TTITLE7=ずっとこのまま 〜Eternal memories〜
TTITLE8=夜の覚醒 [short scotch dream mix]
TTITLE9=風 [echo,deep,inside,mix]
TTITLE10=風 [twilight room mix]
EXTD=YEAR: 2005
EXTT0=
EXTT1=
EXTT2=
EXTT3=
EXTT4=
EXTT5=
EXTT6=
EXTT7=
EXTT8=
EXTT9=
EXTT10=
PLAYORDER=
